<svg width="21" height="21" viewBox="0 0 21 21" fill="none" xmlns="http://www.w3.org/2000/svg">
<g id="Frame">
<path id="Vector" d="M17.6783 11.4091C17.549 12.8086 17.0238 14.1424 16.1641 15.2543C15.3044 16.3663 14.1458 17.2103 12.8238 17.6878C11.5019 18.1653 10.0713 18.2565 8.69952 17.9506C7.3277 17.6447 6.07136 16.9544 5.07751 15.9606C4.08366 14.9667 3.39341 13.7104 3.08752 12.3386C2.78164 10.9667 2.87277 9.53617 3.35026 8.21425C3.82775 6.89233 4.67184 5.73373 5.78377 4.87403C6.89569 4.01433 8.22947 3.48908 9.62902 3.35974C8.80962 4.46829 8.41533 5.83411 8.51784 7.2088C8.62036 8.58349 9.21287 9.87572 10.1876 10.8505C11.1624 11.8252 12.4546 12.4177 13.8293 12.5202C15.204 12.6228 16.5698 12.2285 17.6783 11.4091V11.4091Z" stroke="white" stroke-width="1.5" stroke-linecap="round" stroke-linejoin="round"/>
</g>
</svg>
